<svg xmlns="http://www.w3.org/2000/svg" width="24" height="24" viewBox="0 0 13.668 16.247">
  <path id="Path_1031" data-name="Path 1031" d="M67.549,39.734H60.715c.867-1.852.809-4.278.9-6.611h0c-.094-2.333-.035-4.759-.9-6.611H74.383c-.856,1.852-.809,4.278-.9,6.611h0c.094,2.333.047,4.759.9,6.611Zm0-13.4H60.715V25a.72.72,0,0,0,.973,0,.72.72,0,0,0,.973,0,.736.736,0,0,0,.985,0,.721.721,0,0,0,.973,0,.72.72,0,0,0,.973,0,.736.736,0,0,0,.985,0,.72.72,0,0,0,.973,0,.72.72,0,0,0,.973,0,.736.736,0,0,0,.985,0,.72.72,0,0,0,.973,0,.72.72,0,0,0,.973,0,.736.736,0,0,0,.985,0,.721.721,0,0,0,.973,0,.72.72,0,0,0,.973,0v1.336H67.549Zm0,13.574H60.715v1.336a.72.72,0,0,1,.973,0,.72.72,0,0,1,.973,0,.736.736,0,0,1,.985,0,.721.721,0,0,1,.973,0,.72.72,0,0,1,.973,0,.736.736,0,0,1,.985,0,.721.721,0,0,1,.973,0,.72.72,0,0,1,.973,0,.736.736,0,0,1,.985,0,.72.72,0,0,1,.973,0,.72.72,0,0,1,.973,0,.736.736,0,0,1,.985,0,.721.721,0,0,1,.973,0,.72.72,0,0,1,.973,0V39.91H67.549Zm0-11.156a4.369,4.369,0,1,1-4.369,4.369,4.364,4.364,0,0,1,4.369-4.369Zm2.384,2.528c-1.008.128-1.2.672-1.872.8a1.637,1.637,0,0,1-.56-.016c-.768-.16-3.5-1.856-3.456.736.016,1.888,2.848,2.96,4.08,1.456.736-.864.88-2.288,1.808-2.976Zm-1.488,2.768a2.3,2.3,0,0,0,2.432-1.072c.416-.848.16-1.76-.8-1.7-.848.624-1.04,1.888-1.632,2.768Z" transform="translate(-60.715 -25)" fill="#1e5aa5" fill-rule="evenodd"/>
</svg>