<svg xmlns="http://www.w3.org/2000/svg" width="56" height="27" viewBox="0 0 26.953 16.247">
  <g id="Group_1150" data-name="Group 1150" transform="translate(-648.73 -459)">
    <g id="Group_1146" data-name="Group 1146" transform="translate(-6 108)">
      <g id="Group_1108" data-name="Group 1108">
        <path id="Path_1033" data-name="Path 1033" d="M67.549,39.734H60.715c.867-1.852.809-4.278.9-6.611h0c-.094-2.333-.035-4.759-.9-6.611H74.383c-.856,1.852-.809,4.278-.9,6.611h0c.094,2.333.047,4.759.9,6.611Zm0-13.4H60.715V25a.72.72,0,0,0,.973,0,.72.72,0,0,0,.973,0,.736.736,0,0,0,.985,0,.721.721,0,0,0,.973,0,.72.72,0,0,0,.973,0,.736.736,0,0,0,.985,0,.72.72,0,0,0,.973,0,.72.72,0,0,0,.973,0,.736.736,0,0,0,.985,0,.72.72,0,0,0,.973,0,.72.72,0,0,0,.973,0,.736.736,0,0,0,.985,0,.721.721,0,0,0,.973,0,.72.72,0,0,0,.973,0v1.336H67.549Zm0,13.574H60.715v1.336a.72.72,0,0,1,.973,0,.72.72,0,0,1,.973,0,.736.736,0,0,1,.985,0,.721.721,0,0,1,.973,0,.72.72,0,0,1,.973,0,.736.736,0,0,1,.985,0,.721.721,0,0,1,.973,0,.72.72,0,0,1,.973,0,.736.736,0,0,1,.985,0,.72.72,0,0,1,.973,0,.72.72,0,0,1,.973,0,.736.736,0,0,1,.985,0,.721.721,0,0,1,.973,0,.72.72,0,0,1,.973,0V39.91H67.549Zm0-11.156a4.369,4.369,0,1,1-4.369,4.369,4.364,4.364,0,0,1,4.369-4.369Zm2.384,2.528c-1.008.128-1.2.672-1.872.8a1.637,1.637,0,0,1-.56-.016c-.768-.16-3.5-1.856-3.456.736.016,1.888,2.848,2.96,4.08,1.456.736-.864.88-2.288,1.808-2.976Zm-1.488,2.768a2.3,2.3,0,0,0,2.432-1.072c.416-.848.16-1.76-.8-1.7-.848.624-1.04,1.888-1.632,2.768Z" transform="translate(600.333 326)" fill="#1e5aa5" fill-rule="evenodd" opacity="0.15"/>
        <path id="Path_1042" data-name="Path 1042" d="M-13.27-5.711h1.777a3.425,3.425,0,0,1,1.764.346,1.2,1.2,0,0,1,.549,1.1,1.386,1.386,0,0,1-.24.84.96.96,0,0,1-.639.395v.039a1.258,1.258,0,0,1,.783.453,1.474,1.474,0,0,1,.24.883A1.455,1.455,0,0,1-9.6-.437,2.441,2.441,0,0,1-11.133,0H-13.27Zm1.211,2.262h.7a1.286,1.286,0,0,0,.713-.152.568.568,0,0,0,.221-.5.5.5,0,0,0-.24-.471,1.544,1.544,0,0,0-.76-.143h-.637Zm0,.961V-1h.789a1.17,1.17,0,0,0,.738-.191.707.707,0,0,0,.238-.586q0-.711-1.016-.711Zm6.508-1.961a1.921,1.921,0,0,1,.4.035L-5.238-3.3a1.365,1.365,0,0,0-.352-.039,1.263,1.263,0,0,0-.889.293,1.059,1.059,0,0,0-.318.82V0H-7.988V-4.367h.9l.176.734h.059A1.642,1.642,0,0,1-6.3-4.225,1.353,1.353,0,0,1-5.551-4.449ZM-1.742,0l-.23-.594H-2a1.76,1.76,0,0,1-.619.525,2,2,0,0,1-.83.146,1.342,1.342,0,0,1-.99-.359A1.38,1.38,0,0,1-4.8-1.3,1.152,1.152,0,0,1-4.318-2.33,2.818,2.818,0,0,1-2.852-2.7l.758-.023V-2.91a.594.594,0,0,0-.68-.664A3.1,3.1,0,0,0-4-3.258l-.395-.8a3.55,3.55,0,0,1,1.672-.395,2.083,2.083,0,0,1,1.348.383A1.415,1.415,0,0,1-.91-2.91V0Zm-.352-2.023-.461.016a1.476,1.476,0,0,0-.773.188.589.589,0,0,0-.254.523q0,.5.578.5a.916.916,0,0,0,.662-.238.837.837,0,0,0,.248-.633ZM4.348,0H3.156V-2.551a1.225,1.225,0,0,0-.168-.709A.611.611,0,0,0,2.453-3.5a.8.8,0,0,0-.723.334,2.071,2.071,0,0,0-.223,1.107V0H.316V-4.367h.91l.16.559h.066A1.259,1.259,0,0,1,2-4.287,1.869,1.869,0,0,1,2.8-4.449a1.527,1.527,0,0,1,1.156.412,1.654,1.654,0,0,1,.395,1.189ZM6.957.078a1.418,1.418,0,0,1-1.209-.6,2.748,2.748,0,0,1-.439-1.656A2.75,2.75,0,0,1,5.756-3.85a1.453,1.453,0,0,1,1.232-.6,1.425,1.425,0,0,1,1.258.641h.039A4.871,4.871,0,0,1,8.2-4.68v-1.4h1.2V0H8.477l-.23-.566H8.2A1.363,1.363,0,0,1,6.957.078Zm.418-.949a.807.807,0,0,0,.67-.266,1.545,1.545,0,0,0,.232-.9v-.129a1.786,1.786,0,0,0-.217-1.008.805.805,0,0,0-.705-.3.7.7,0,0,0-.619.338,1.8,1.8,0,0,0-.221.982,1.708,1.708,0,0,0,.223.967A.727.727,0,0,0,7.375-.871ZM13.684-1.3a1.2,1.2,0,0,1-.467,1.023,2.306,2.306,0,0,1-1.4.352,4.386,4.386,0,0,1-.812-.064,3.073,3.073,0,0,1-.629-.189V-1.16a4.153,4.153,0,0,0,.748.262,3.029,3.029,0,0,0,.732.105q.648,0,.648-.375a.313.313,0,0,0-.086-.229,1.246,1.246,0,0,0-.3-.2q-.211-.111-.562-.26a3.534,3.534,0,0,1-.74-.391,1.1,1.1,0,0,1-.344-.412,1.36,1.36,0,0,1-.107-.572,1.037,1.037,0,0,1,.451-.9A2.2,2.2,0,0,1,12.1-4.449a3.631,3.631,0,0,1,1.535.344l-.359.859q-.328-.141-.613-.23a1.926,1.926,0,0,0-.582-.09q-.527,0-.527.285a.335.335,0,0,0,.17.277,4.621,4.621,0,0,0,.744.348,3.457,3.457,0,0,1,.75.387,1.144,1.144,0,0,1,.352.414A1.272,1.272,0,0,1,13.684-1.3Z" transform="translate(668 362)" fill="#1e5aa5"/>
      </g>
    </g>
  </g>
</svg>
