<svg id="Group_1353" data-name="Group 1353" xmlns="http://www.w3.org/2000/svg" width="89.903" height="64.795" viewBox="0 0 89.903 64.795">
  <path id="Path_1150" data-name="Path 1150" d="M55.32,51.914c-23.757,0-43.157-12.7-44.792-27.7a18.253,18.253,0,0,0-.161,2.03c0,15.872,20.125,29.89,44.953,29.89s44.95-14.018,44.95-29.89a18.256,18.256,0,0,0-.161-2.03c-1.636,15-21.035,27.7-44.79,27.7" transform="translate(-10.367 8.664)" fill="#1a1818"/>
  <path id="Path_1151" data-name="Path 1151" d="M55.32,15.907c23.754,0,43.154,13.189,44.79,28.762a19.573,19.573,0,0,0,.161-2.107c0-16.476-20.125-31.033-44.95-31.033S10.367,26.086,10.367,42.562a19.571,19.571,0,0,0,.161,2.107C12.163,29.1,31.563,15.907,55.32,15.907" transform="translate(-10.367 -11.529)" fill="#1a1818"/>
  <path id="Path_1152" data-name="Path 1152" d="M37.267,41.013a1.084,1.084,0,0,1,1.076,1.1c0,.982-1.672,2.7-4.057,4.132a16.122,16.122,0,0,1-8.2,2.245c-8.119,0-14.166-6.252-14.166-14.589A15.65,15.65,0,0,1,28,17.961c3.9,0,8.155,1.475,9.985,3.432a2.805,2.805,0,0,1,.638,1.68A5.773,5.773,0,0,1,37.192,26.1c-.92,1.223-1.949,2.04-2.548,2.04a.773.773,0,0,1-.638-.288,1.061,1.061,0,0,1-.438-.936.834.834,0,0,1,.08-.412l.238-.772a.676.676,0,0,0,.119-.451c0-2-3.183-3.678-7.045-3.678-5.809,0-9.749,4.212-9.749,10.462,0,6.742,4.974,12.056,11.465,12.056a11.375,11.375,0,0,0,5.052-1.1l3.144-1.879a.671.671,0,0,1,.394-.122" transform="translate(-7.893 -1.288)" fill="#1a1818"/>
  <path id="Path_1153" data-name="Path 1153" d="M35.363,44.332c-7.24,0-12.492-5.319-12.492-12.644,0-7.271,5.166-12.549,12.287-12.549,7.139,0,12.318,5.332,12.318,12.681,0,7.248-5.094,12.512-12.113,12.512M35.02,22.218a5.3,5.3,0,0,0-4.663,2.527,14.429,14.429,0,0,0-1.742,6.846c0,5.635,2.794,9.728,6.644,9.728,3.87,0,6.47-3.673,6.47-9.142,0-6.141-2.569-9.959-6.708-9.959" transform="translate(9.541 0.587)" fill="#1a1818"/>
  <path id="Path_1154" data-name="Path 1154" d="M52.425,36.236c.754,1.187,1.395,2.208,1.91,3.069,1.4,2.162,2.232,3.393,2.429,3.8a4.54,4.54,0,0,0,1.4,1.633L59.8,45.6a1.172,1.172,0,0,1,.715,1.141c0,.944-.715,1.351-2.431,1.351a11.911,11.911,0,0,1-3.984-.734c-1.351-.534-2.354-1.555-3.665-3.924l-3.549-6.294A8.293,8.293,0,0,0,45.844,35.7a7.608,7.608,0,0,0-.754-.858,3.6,3.6,0,0,0-2.232-.772c-.233,0-.638.041-1.115.078v7.03c0,2.33.435,3.435,1.555,3.839l1.636.578a1.232,1.232,0,0,1,.876,1.141c0,.9-.679,1.351-1.874,1.351-.441,0-.915-.041-1.351-.083a20.935,20.935,0,0,0-3.51-.285,31.726,31.726,0,0,0-3.227.166c-.6.039-1.115.119-1.594.119-1.516,0-2.154-.41-2.154-1.268,0-.568.358-.9,1.076-1.185.8-.288,1.275-.493,1.436-.534a2.771,2.771,0,0,0,.876-.731c.48-.573.679-1.431.679-3.4v-16.3a13.614,13.614,0,0,0-.122-1.843c-.078-.692.187-1.389-.687-1.675l-1.353-.49a1.324,1.324,0,0,1-1.039-1.268c0-.9.677-1.268,2.113-1.268a6.366,6.366,0,0,1,.728.083,33.4,33.4,0,0,0,3.906.246c1.034,0,2.431-.083,4.1-.2,1.514-.127,2.709-.166,3.707-.166,5.5,0,9.285,3.144,9.285,7.888a6.81,6.81,0,0,1-2.512,5.436A9.634,9.634,0,0,1,49.237,33.5a5.081,5.081,0,0,1,3.188,2.737M41.784,31.213l1.236.041c.521.036.956.036,1.392.036,2.434,0,3.7-.407,4.824-1.548a5.127,5.127,0,0,0,1.514-3.722,4.993,4.993,0,0,0-5.143-5.148c-2.792,0-3.823,1.351-3.823,5.026Z" transform="translate(24.235 -1.209)" fill="#1a1818"/>
  <path id="Path_1155" data-name="Path 1155" d="M27.091,16.731v8.137h1.726V15.759a1.332,1.332,0,0,0-.3-.85.671.671,0,0,0-.575-.337H24.535a3.4,3.4,0,0,1-.817-.28,2.01,2.01,0,0,1-.337-.187l-.518,2.126a1.045,1.045,0,0,0,.35.332.918.918,0,0,0,.537.171c.031,0,.06,0,.111,0Z" transform="translate(9.528 -7.428)" fill="#1a1818"/>
  <path id="Path_1156" data-name="Path 1156" d="M26.343,16.607l1.444,8.606a8.665,8.665,0,0,0,5.736-2.958,16.522,16.522,0,0,0,2.857-6.561L34.3,14.2l-.747,1.939.892.55-.049.2a8.952,8.952,0,0,1-1.905,3.844,6.412,6.412,0,0,1-3.331,2.338l-.283.088-1.332-8-1.376-1.026L25.516,15.8Zm3.912,3.769a9.11,9.11,0,0,0,1.268-2.061,11.175,11.175,0,0,0,.894-2.45L30.33,14.134l-.842,1.739,1.016.853-1.382,2.551Z" transform="translate(13.752 -7.381)" fill="#1a1818"/>
  <path id="Path_1157" data-name="Path 1157" d="M34.2,16.861c.228.161.2,1.244.207,2.39a8.191,8.191,0,0,1-.137,2.768,2.183,2.183,0,0,1-1.234.6,18.927,18.927,0,0,1-3.129.485l.319,1.962s3.945-1.006,4.448-1.141a2.121,2.121,0,0,0,1.008-.433c.184-.241.259-.3.29-.964s-.062-6.654-.062-6.654a1.388,1.388,0,0,0-.389-.982c-.29-.314-.69-.334-1.382-.358s-2.115-.023-2.115-.023a1.857,1.857,0,0,1-.581-.166,3.189,3.189,0,0,1-.28-.166l-.9,1.926a2.221,2.221,0,0,0,.568.386,5.351,5.351,0,0,0,1.288.166c.635.039,1.511-.2,2.084.2" transform="translate(20.748 -7.303)" fill="#1a1818"/>
  <path id="Path_1158" data-name="Path 1158" d="M22.851,40.417a4.889,4.889,0,0,1,1.483-3.507,18.983,18.983,0,0,1,2.475-1.84c.723-.531,1.239-1.045,1.239-1.752A1.188,1.188,0,0,0,26.822,32c-1.221,0-1.563.982-1.576,2.131H23.082c-.135-2.615,1.361-4.381,3.727-4.381a3.254,3.254,0,0,1,3.551,3.339c0,2.024-1.3,2.779-2.693,3.73a8.581,8.581,0,0,0-1.716,1.42h4.508v2.177Z" transform="translate(9.509 17.481)" fill="#1a1818"/>
  <path id="Path_1159" data-name="Path 1159" d="M33.853,35.813v2.177H32.614v2.341H30.3V37.991h-4.15v-2.4L30.4,29.8h2.216v6.011Zm-3.484,0v-3.4h-.029l-2.4,3.4Z" transform="translate(14.765 17.564)" fill="#1a1818"/>
  <path id="Path_1160" data-name="Path 1160" d="M31.27,34.828V34.8a2.08,2.08,0,0,1-1.415-2.146c0-2.087,1.931-2.9,3.523-2.9,1.62,0,3.484.814,3.484,2.916a2.121,2.121,0,0,1-1.4,2.131v.031a2.337,2.337,0,0,1,1.783,2.491c0,2.328-2,3.235-3.878,3.235s-3.919-.772-3.919-3.235a2.424,2.424,0,0,1,1.822-2.491m.49,2.356a1.589,1.589,0,0,0,3.17,0,1.457,1.457,0,0,0-1.563-1.511,1.476,1.476,0,0,0-1.607,1.511m.153-4.337c0,.936.731,1.239,1.441,1.239a1.288,1.288,0,0,0,1.454-1.239c0-.863-.708-1.211-1.454-1.211-.765,0-1.441.332-1.441,1.211" transform="translate(20.013 17.481)" fill="#1a1818"/>
</svg>
